HIERARCHY
ROOT Hips
{
	OFFSET 0.00000 0.00000 0.00000
	CHANNELS 6 Xposition Yposition Zposition Zrotation Yrotation Xrotation 
	JOINT LHipJoint
	{
		OFFSET 0 0 0
		CHANNELS 3 Zrotation Yrotation Xrotation
		JOINT LeftHip
		{
			OFFSET 1.53794 -1.55850 0.93568
			CHANNELS 3 Zrotation Yrotation Xrotation
			JOINT LeftKnee
			{
				OFFSET 2.28545 -6.27922 0.00000
				CHANNELS 3 Zrotation Yrotation Xrotation
				JOINT LeftAnkle
				{
					OFFSET 2.37329 -6.52057 0.00000
					CHANNELS 3 Zrotation Yrotation Xrotation
					JOINT LeftToe
					{
						OFFSET 0.14846 -0.40788 2.09160
						CHANNELS 3 Zrotation Yrotation Xrotation
						End Site
						{
							OFFSET 0.00000 -0.00000 1.07536
						}
					}
				}
			}
		}
	}
	JOINT RHipJoint
	{
		OFFSET 0 0 0
		CHANNELS 3 Zrotation Yrotation Xrotation
		JOINT RightHip
		{
			OFFSET -1.78290 -1.55850 0.93568
			CHANNELS 3 Zrotation Yrotation Xrotation
			JOINT RightKnee
			{
				OFFSET -2.24144 -6.15831 0.00000
				CHANNELS 3 Zrotation Yrotation Xrotation
				JOINT RightAnkle
				{
					OFFSET -2.35091 -6.45907 0.00000
					CHANNELS 3 Zrotation Yrotation Xrotation
					JOINT RightToe
					{
						OFFSET -0.14428 -0.39641 2.07944
						CHANNELS 3 Zrotation Yrotation Xrotation
						End Site
						{
							OFFSET -0.00000 -0.00000 1.06864
						}
					}
				}
			}
		}
	}
	JOINT lowerback
	{
		OFFSET 0 0 0
		CHANNELS 3 Zrotation Yrotation Xrotation
		JOINT Chest
		{
			OFFSET -0.08841 2.11430 -0.15818
			CHANNELS 3 Zrotation Yrotation Xrotation
			JOINT Chest2
			{
				OFFSET -0.00033 2.12605 -0.08097
				CHANNELS 3 Zrotation Yrotation Xrotation
				JOINT lowerneck
				{
					OFFSET 0 0 0
					CHANNELS 3 Zrotation Yrotation Xrotation
					JOINT Neck
					{
						OFFSET 0.04431 1.59447 0.43193
						CHANNELS 3 Zrotation Yrotation Xrotation
						JOINT Head
						{
							OFFSET 0.00455 1.62017 -0.58852
							CHANNELS 3 Zrotation Yrotation Xrotation
							End Site
							{
								OFFSET -0.00920 1.72955 -0.25850
							}
						}
					}
				}
				JOINT LeftCollar
				{
					OFFSET 0 0 0
					CHANNELS 3 Zrotation Yrotation Xrotation
					JOINT LeftShoulder
					{
						OFFSET 2.86490 1.49927 -0.33774
CHANNELS 3 Zrotation Xrotation Yrotation
						JOINT LeftElbow
						{
OFFSET 0 -4.874080 0.000000
CHANNELS 3 Zrotation Xrotation Yrotation
							JOINT LeftWrist
							{
OFFSET 0 -2.767290 0.000000
CHANNELS 3 Zrotation Xrotation Yrotation
								JOINT lhand
								{
									OFFSET 0 0 0
CHANNELS 3 Zrotation Xrotation Yrotation
									JOINT LFingers
									{
OFFSET 0 -0.989220 0.000000
CHANNELS 3 Zrotation Xrotation Yrotation
										End Site
										{
OFFSET 0 -0.797530 0.000000
										}
									}
								}
								JOINT LThumb
								{
OFFSET 0 0.000000 0.000000
CHANNELS 3 Zrotation Xrotation Yrotation
									End Site
									{
OFFSET 0 -0.809720 0.809720
									}
								}
							}
						}
					}
				}
				JOINT RightCollar
				{
					OFFSET 0 0 0
					CHANNELS 3 Zrotation Yrotation Xrotation
					JOINT RightShoulder
					{
						OFFSET -2.94414 1.45463 -0.25291
CHANNELS 3 Zrotation Xrotation Yrotation
						JOINT RightElbow
						{
OFFSET 0 -4.714040 0.000000
CHANNELS 3 Zrotation Xrotation Yrotation
							JOINT RightWrist
							{
OFFSET 0 -2.834680 0.000000
CHANNELS 3 Zrotation Xrotation Yrotation
								JOINT rhand
								{
									OFFSET 0 0 0
CHANNELS 3 Zrotation Xrotation Yrotation
									JOINT RFingers
									{
OFFSET 0 -0.868200 0.000000
CHANNELS 3 Zrotation Xrotation Yrotation
										End Site
										{
OFFSET 0 -0.699960 0.000000
										}
									}
								}
								JOINT RThumb
								{
OFFSET 0 0.000000 0.000000
CHANNELS 3 Zrotation Xrotation Yrotation
									End Site
									{
OFFSET 0 -0.710650 0.710650
									}
								}
							}
						}
					}
				}
			}
		}
	}
}
MOTION
Frames: 8
Frame Time: 0.008333333333333333
0.632300 15.940500 37.418500 179.238000 1.026000 -168.176000 0.000000 0.000000 0.000000 -18.282800 -16.034400 -31.255100 3.144500 10.925400 32.028600 -0.575000 15.629000 3.047900 0.060100 -1.582100 -4.352100 0.000000 0.000000 0.000000 21.520600 -2.432300 -0.023300 -8.916200 -16.753500 55.800000 -0.297400 -20.764900 16.890900 -1.117900 6.716600 -18.878500 -3.470000 1.286500 -5.549700 -1.688300 2.204900 3.158800 0.428900 1.017500 6.352400 -13.335300 -5.374800 -33.399300 11.494700 -8.848200 38.639300 6.093900 -4.594300 24.565100 -0.000000 -0.000000 0.000000 26.041300 21.815000 -60.754600 124.682300 -54.927300 89.524200 11.924300 15.974600 -3.468600 0.000000 0.000000 0.000000 -7.125000 0.000000 0.000000 -11.943700 33.347300 -3.476300 -0.000000 -0.000000 0.000000 -13.223900 11.534100 57.842800 -109.256000 -58.551500 -76.595100 -13.044400 6.353600 1.976300 0.000000 0.000000 0.000000 7.125000 0.000000 -0.000000 10.845000 31.885400 3.535400
0.628970 15.908147 37.300879 179.160401 0.922066 -168.263070 0.000000 0.000000 0.000000 -18.566099 -15.943542 -30.987902 3.278527 11.126639 32.715293 -0.646886 15.966465 2.114020 0.063247 -1.621694 -4.461289 0.000000 0.000000 0.000000 21.370381 -2.507241 -0.567259 -9.246364 -16.953486 56.923632 -0.225911 -20.750083 16.340220 -1.119916 6.722435 -18.895639 -3.598925 1.235938 -5.494372 -1.695235 2.151161 3.201449 0.487130 0.986796 6.364070 -15.550272 -6.117829 -31.723277 13.248414 -10.093425 37.882798 7.152917 -5.313713 24.436114 0.000000 0.000000 0.000000 25.970575 21.219318 -60.986115 124.377310 -55.024544 89.274080 12.006635 15.914079 -3.499823 0.000000 0.000000 0.000000 -7.125000 0.000000 0.000000 -11.882262 33.381639 -3.447796 0.000000 0.000000 0.000000 -13.059872 11.904652 57.406899 -108.561944 -58.652318 -76.001923 -13.144271 6.506874 2.014550 0.000000 0.000000 0.000000 7.125000 0.000000 0.000000 10.770578 31.926674 3.499686
0.625640 15.875793 37.183258 179.082801 0.818132 -168.350140 0.000000 0.000000 0.000000 -18.849397 -15.852683 -30.720703 3.412554 11.327878 33.401986 -0.718773 16.303931 1.180139 0.066393 -1.661288 -4.570478 0.000000 0.000000 0.000000 21.220162 -2.582183 -1.111218 -9.576528 -17.153473 58.047264 -0.154422 -20.735266 15.789539 -1.121933 6.728270 -18.912778 -3.727850 1.185376 -5.439045 -1.702170 2.097422 3.244098 0.545360 0.956093 6.375741 -17.765244 -6.860858 -30.047253 15.002129 -11.338650 37.126296 8.211934 -6.033126 24.307128 0.000000 0.000000 0.000000 25.899849 20.623636 -61.217630 124.072320 -55.121787 89.023959 12.088969 15.853557 -3.531046 0.000000 0.000000 0.000000 -7.125000 0.000000 0.000000 -11.820824 33.415978 -3.419292 0.000000 0.000000 0.000000 -12.895844 12.275204 56.970999 -107.867888 -58.753136 -75.408747 -13.244142 6.660148 2.052799 0.000000 0.000000 0.000000 7.125000 0.000000 0.000000 10.696156 31.967949 3.463972
0.622310 15.843440 37.065637 179.005202 0.714197 -168.437210 0.000000 0.000000 0.000000 -19.132696 -15.761825 -30.453505 3.546581 11.529117 34.088679 -0.790659 16.641396 0.246259 0.069540 -1.700882 -4.679667 0.000000 0.000000 0.000000 21.069943 -2.657124 -1.655177 -9.906691 -17.353459 59.170897 -0.082933 -20.720448 15.238859 -1.123949 6.734106 -18.929917 -3.856775 1.134815 -5.383717 -1.709105 2.043683 3.286747 0.603590 0.925389 6.387411 -19.980216 -7.603887 -28.371230 16.755843 -12.583875 36.369794 9.270951 -6.752539 24.178142 0.000000 0.000000 0.000000 25.829124 20.027955 -61.449145 123.767331 -55.219031 88.773839 12.171304 15.793036 -3.562269 0.000000 0.000000 0.000000 -7.125000 0.000000 0.000000 -11.759386 33.450318 -3.390788 0.000000 0.000000 0.000000 -12.731816 12.645756 56.535098 -107.173833 -58.853954 -74.815570 -13.344013 6.813422 2.091049 0.000000 0.000000 0.000000 7.125000 0.000000 0.000000 10.621734 32.009223 3.428258
0.618713 15.820212 36.947994 178.920942 0.653427 -168.526945 0.000000 0.000000 0.000000 -19.384443 -15.653181 -30.175849 3.658293 11.688657 34.642816 -0.838565 16.860760 -0.495716 0.075396 -1.768097 -4.865214 0.000000 0.000000 0.000000 20.901606 -2.644561 -2.248984 -10.226553 -17.528488 60.233913 -0.043617 -20.559242 14.817715 -1.135513 6.767207 -19.027567 -3.995158 1.098108 -5.265420 -1.717350 2.002977 3.295025 0.665328 0.902212 6.326232 -18.937088 -7.288755 -29.057322 16.030029 -12.126211 36.649494 8.781773 -6.447896 24.188595 0.000000 0.000000 0.000000 25.670139 19.426877 -61.688142 123.318639 -55.355775 88.404418 12.320206 15.794019 -3.581968 0.000000 0.000000 0.000000 -7.125000 0.000000 0.000000 -11.642639 33.475687 -3.348740 0.000000 0.000000 0.000000 -12.530020 13.133499 56.041069 -106.418739 -58.951686 -74.168594 -13.415152 6.930881 2.093329 0.000000 0.000000 0.000000 7.125000 0.000000 0.000000 10.565563 32.013417 3.408397
0.615017 15.800415 36.830342 178.834177 0.608884 -168.617681 0.000000 0.000000 0.000000 -19.624329 -15.537851 -29.894261 3.761616 11.832521 35.147120 -0.877457 17.035726 -1.165544 0.082270 -1.845697 -5.079468 0.000000 0.000000 0.000000 20.726458 -2.599101 -2.861530 -10.542541 -17.694135 61.274141 -0.016396 -20.343003 14.445269 -1.150666 6.810559 -19.155483 -4.137098 1.066610 -5.123449 -1.726088 1.967172 3.290381 0.728385 0.881865 6.237664 -16.669110 -6.575819 -30.631428 14.372061 -11.028364 37.318742 7.710566 -5.758271 24.251469 0.000000 0.000000 0.000000 25.477974 18.823772 -61.929953 122.815923 -55.507368 87.990148 12.494132 15.818123 -3.597336 0.000000 0.000000 0.000000 -7.125000 0.000000 0.000000 -11.505099 33.497683 -3.301600 0.000000 0.000000 0.000000 -12.314025 13.665299 55.525186 -105.640699 -59.048257 -73.501392 -13.475490 7.034877 2.082086 0.000000 0.000000 0.000000 7.125000 0.000000 0.000000 10.516254 32.003671 3.394497
0.611320 15.780618 36.712690 178.747412 0.564341 -168.708417 0.000000 0.000000 0.000000 -19.864215 -15.422522 -29.612673 3.864939 11.976386 35.651424 -0.916348 17.210691 -1.835373 0.089144 -1.923296 -5.293722 0.000000 0.000000 0.000000 20.551310 -2.553641 -3.474075 -10.858529 -17.859782 62.314369 0.010825 -20.126764 14.072823 -1.165820 6.853911 -19.283400 -4.279037 1.035112 -4.981479 -1.734825 1.931366 3.285738 0.791443 0.861519 6.149097 -14.401132 -5.862883 -32.205533 12.714093 -9.930517 37.987990 6.639359 -5.068645 24.314343 0.000000 0.000000 0.000000 25.285808 18.220666 -62.171763 122.313208 -55.658962 87.575877 12.668058 15.842228 -3.612703 0.000000 0.000000 0.000000 -7.125000 0.000000 0.000000 -11.367559 33.519680 -3.254460 0.000000 0.000000 0.000000 -12.098030 14.197099 55.009303 -104.862659 -59.144829 -72.834191 -13.535828 7.138872 2.070844 0.000000 0.000000 0.000000 7.125000 0.000000 0.000000 10.466945 31.993926 3.380596
0.608427 15.759505 36.596702 178.645129 0.542744 -168.811486 0.000000 0.000000 0.000000 -20.125731 -15.268657 -29.300379 3.966863 12.114624 36.140943 -0.951553 17.380751 -2.476118 0.098221 -2.016927 -5.552524 0.000000 0.000000 0.000000 20.356637 -2.489669 -4.080746 -11.177829 -18.016520 63.352422 0.045792 -19.955571 13.654636 -1.176095 6.883240 -19.369955 -4.455493 1.009198 -4.830350 -1.744367 1.907033 3.304691 0.874190 0.845564 6.079292 -13.137025 -5.484247 -33.073820 11.819947 -9.356872 38.320306 6.044411 -4.690899 24.327458 0.000000 0.000000 0.000000 25.080466 17.581270 -62.412479 121.844108 -55.796727 87.188447 12.824345 15.844717 -3.687098 0.000000 0.000000 0.000000 -7.125000 0.000000 0.000000 -11.252577 33.600525 -3.198257 0.000000 0.000000 0.000000 -11.893051 14.685417 54.487074 -104.072536 -59.234915 -72.155655 -13.631597 7.246498 2.097872 0.000000 0.000000 0.000000 7.125000 0.000000 0.000000 10.394135 32.023934 3.349028
